<?xml version="1.0" encoding="UTF-8" standalone="no"?>
<svg
   xmlns:dc="http://purl.org/dc/elements/1.1/"
   xmlns:cc="http://creativecommons.org/ns#"
   xmlns:rdf="http://www.w3.org/1999/02/22-rdf-syntax-ns#"
   xmlns:svg="http://www.w3.org/2000/svg"
   xmlns="http://www.w3.org/2000/svg"
   xmlns:sodipodi="http://sodipodi.sourceforge.net/DTD/sodipodi-0.dtd"
   xmlns:inkscape="http://www.inkscape.org/namespaces/inkscape"
   inkscape:version="1.0 (6e3e5246a0, 2020-05-07)"
   height="2703.2141"
   width="2703.2141"
   sodipodi:docname="Infinity-Symbol.svg"
   xml:space="preserve"
   viewBox="0 0 2703.214 2703.214"
   y="0px"
   x="0px"
   id="Layer_1"
   version="1.1"><metadata
   id="metadata13"><rdf:RDF><cc:Work
       rdf:about=""><dc:format>image/svg+xml</dc:format><dc:type
         rdf:resource="http://purl.org/dc/dcmitype/StillImage" /><dc:title></dc:title></cc:Work></rdf:RDF></metadata><defs
   id="defs11" /><sodipodi:namedview
   inkscape:current-layer="Layer_1"
   inkscape:window-maximized="1"
   inkscape:window-y="27"
   inkscape:window-x="0"
   inkscape:cy="437.02335"
   inkscape:cx="-1639.1877"
   inkscape:zoom="0.12216938"
   showgrid="false"
   id="namedview9"
   inkscape:window-height="1016"
   inkscape:window-width="1920"
   inkscape:pageshadow="2"
   inkscape:pageopacity="0"
   guidetolerance="10"
   gridtolerance="10"
   objecttolerance="10"
   borderopacity="1"
   bordercolor="#666666"
   pagecolor="#ffffff" />
<g
   inkscape:export-ydpi="2.54"
   inkscape:export-xdpi="2.54"
   inkscape:export-filename="/home/mike/Documents/nodejs/evermore/assets/images/tray-logo.png"
   style="fill:#ffffff"
   transform="matrix(0.82035717,-0.76292072,0.73656781,0.84970789,-216.89804,1869.5869)"
   id="g6">
	<g
   style="fill:#ffffff"
   id="g4">
		<path
   style="fill:#ffffff"
   id="path2"
   d="M 72.373,651.52 C 62.109,212.429 541.276,-95.972 961.842,145.033 c 138.551,79.397 256.167,196.988 382.632,325.418 5.749,5.839 8.404,5.236 13.785,-0.188 197.808,-199.402 484.222,-503.454 885.399,-385.157 168.833,49.784 286.15,159.321 346.255,324.377 201.16,552.413 -375.869,1009.769 -870.693,706.588 -124.801,-76.466 -232.581,-181.978 -359.98,-311.726 -6.801,-6.927 -9.868,-5.946 -16.086,0.324 -144.739,145.956 -300.538,304.607 -492.977,371.024 C 458.575,1310.846 83.17,1077.492 72.373,651.52 Z m 245.045,-8.512 c 12.485,253.639 207.59,371.88 415.468,326.918 179.653,-38.857 330.36,-196.86 458.721,-328.811 4.325,-4.446 1.9,-6.251 -1.072,-9.025 C 1079.047,528.024 970.17,400.906 832.954,335.49 567.01,208.705 316.523,394.639 317.418,643.008 Z m 2067.847,-10.72 c -7.903,-245.124 -201.289,-378.703 -424.132,-326.433 -175.334,41.126 -325.161,198.381 -449.641,326.279 -4.318,4.437 -2.66,6.509 0.879,9.811 155.637,145.245 339.3,374.567 587.443,332.772 165.289,-27.84 285.82,-171.807 285.451,-342.429 z" />
	</g>
</g>
</svg>
